<?xml version="1.0" encoding="UTF-8" standalone="no"?>
<svg
   xmlns:dc="http://purl.org/dc/elements/1.1/"
   xmlns:cc="http://creativecommons.org/ns#"
   xmlns:rdf="http://www.w3.org/1999/02/22-rdf-syntax-ns#"
   xmlns:svg="http://www.w3.org/2000/svg"
   xmlns="http://www.w3.org/2000/svg"
   viewBox="0 0 432 217.33333"
   height="217.33333"
   width="432"
   xml:space="preserve"
   id="svg2"
   version="1.1"><metadata
     id="metadata8"><rdf:RDF><cc:Work
         rdf:about=""><dc:format>image/svg+xml</dc:format><dc:type
           rdf:resource="http://purl.org/dc/dcmitype/StillImage" /></cc:Work></rdf:RDF></metadata><defs
     id="defs6" /><g
     transform="matrix(1.3333333,0,0,-1.3333333,0,217.33333)"
     id="g10"><g
       transform="scale(0.1)"
       id="g12"><path
         id="path14"
         style="fill:#4c99ab;fill-opacity:1;fill-rule:evenodd;stroke:none"
         d="M 2528.71,765.199 H 1503.12 l -96.48,-168.32 h 1025.59 l 96.48,168.32 m -448.12,-408.48 h -812.82 l 96.49,168.32 h 812.81 l -96.48,-168.32" /><path
         id="path16"
         style="fill:#829ca8;fill-opacity:1;fill-rule:evenodd;stroke:none"
         d="M 1189.77,357.379 1565.39,1007.38 1468.2,1175 996.801,357.379 h 192.969 m -473.481,0 613.051,1057.781 97.14,-167.62 L 913.32,357.379 H 716.289" /><path
         id="path18"
         style="fill:#26617d;fill-opacity:1;fill-rule:evenodd;stroke:none"
         d="m 1283.48,1629.3 459.8,-795.71 h 193.6 l -459.73,796.41 -193.67,-0.7 m 520.7,-83.48 410.51,-712.23 -193.6,-0.66 -410.54,712.23 193.63,0.66" /><path
         id="path20"
         style="fill:#27617e;fill-opacity:1;fill-rule:nonzero;stroke:none"
         d="m 15.0391,194.379 h 7.3398 l 0.9414,-5 H 107.23 l 0.782,5 h 7.808 l 15.16,-42.969 -9.378,-3.289 c -4.301,11.141 -9.063,19.07 -14.372,23.758 -5.242,4.762 -12.8198,7.18 -22.8198,7.18 -4.2891,0 -6.9493,-0.469 -7.961,-1.399 -0.9375,-0.859 -1.4101,-3.519 -1.4101,-7.969 V 68.5898 c 0,-7.5 1.4101,-12.1406 4.2226,-13.8984 2.8086,-1.6797 7.5781,-2.5 14.3672,-2.5 v -8.75 h -56.25 v 8.75 c 5.6328,0 9.6914,0.3477 12.1914,1.0899 2.5,0.8203 4.1016,2.2304 4.8399,4.2187 0.7109,2.0703 1.1015,5.4688 1.1015,10.1602 V 171.25 c 0,3.441 -0.4336,5.551 -1.25,6.41 -0.7422,0.93 -2.8125,1.399 -6.25,1.399 -11.5625,0 -19.8125,-2.457 -24.6914,-7.34 -4.8008,-4.918 -9.4492,-12.77 -13.91014,-23.598 l -9.3710975,3.289 z m 124.2619,-15.32 v 9.062 c 11.871,1.758 21.09,4.688 27.648,8.758 h 8.281 v -68.91 c 15.391,12.691 29.61,19.062 42.661,19.062 9.058,0 16.64,-2.812 22.808,-8.441 6.141,-5.539 9.223,-12.301 9.223,-20.309 V 66.8789 c 0,-4.6094 0.348,-7.8984 1.098,-9.8476 0.699,-1.8711 2.218,-3.2032 4.531,-3.9102 2.379,-0.6211 6.437,-0.9297 12.179,-0.9297 v -8.75 h -54.058 v 8.75 h 4.219 c 6.328,0 10.347,0.9297 12.031,2.8086 1.637,1.9492 2.5,6.6016 2.5,13.9102 v 35.6208 c 0,10.391 -1.371,17.809 -4.063,22.188 -2.738,4.371 -8.05,6.562 -15.937,6.562 -11.871,0 -24.301,-5.703 -37.192,-17.031 V 64.0586 c 0,-5.2305 0.711,-8.5078 2.192,-9.8398 1.449,-1.3672 5.387,-2.0274 11.879,-2.0274 h 4.371 v -8.75 h -54.371 v 8.75 h 3.277 c 7.192,0 11.442,1.1289 12.813,3.4297 1.328,2.2695 2.031,6.6094 2.031,12.9687 V 179.059 Z" /><path
         id="path22"
         style="fill:#27617e;fill-opacity:1;fill-rule:nonzero;stroke:none"
         d="m 377.5,70.4688 6.719,-5.3086 c -6.559,-8.4414 -13.278,-14.6094 -20.16,-18.4414 -6.789,-3.8282 -14.489,-5.7774 -23.118,-5.7774 -10.632,0 -19.961,2.3399 -27.972,7.0274 -8.047,4.6914 -14.059,11.2929 -18.129,19.8398 -4.059,8.6406 -6.09,17.582 -6.09,26.8828 0,14.6876 4.691,27.0706 14.059,37.1876 9.461,10.07 21.882,15.152 37.191,15.152 13.121,0 23.59,-3.91 31.41,-11.722 7.809,-7.731 11.871,-18.547 12.18,-32.5 h -74.059 c -0.121,-2.809 -0.152,-5.4692 -0.152,-7.9692 0,-12.8085 3.043,-23.1992 9.211,-31.0898 6.14,-7.9297 14.379,-11.8711 24.691,-11.8711 6.758,0 12.809,1.6406 18.129,5 5.309,3.3203 10.66,7.8516 16.09,13.5899 z M 364.219,112.66 c -2.739,16.32 -10.938,24.531 -24.688,24.531 -7.422,0 -13.359,-2.113 -17.812,-6.25 -4.489,-4.062 -8.047,-10.16 -10.629,-18.281 z" /><path
         id="path24"
         style="fill:#27617e;fill-opacity:1;fill-rule:nonzero;stroke:none"
         d="m 517.66,196.879 h 17.18 L 580.309,67.5 c 1.761,-5.2305 3.793,-9.0586 6.101,-11.5586 2.262,-2.5 5.5,-3.75 9.68,-3.75 h 2.351 v -8.75 H 546.41 v 8.75 c 5.82,0 9.68,0.3867 11.559,1.25 1.871,0.9375 2.812,2.5391 2.812,4.8399 0,2.0703 -0.941,5.7773 -2.812,11.0976 L 548.281,97.5 h -52.972 l -11.09,-31.5586 c -1.168,-3.1328 -1.719,-5.5898 -1.719,-7.3516 0,-2.4179 0.941,-4.0585 2.809,-5 1.961,-0.9296 5.863,-1.3984 11.722,-1.3984 v -8.75 h -43.75 v 8.75 c 5.508,0 9.379,0.9688 11.559,2.9688 2.269,2.0703 4.691,6.5586 7.191,13.4296 z m -18.441,-89.07 h 45.16 l -22.66,70.312 z" /><path
         id="path26"
         style="fill:#27617e;fill-opacity:1;fill-rule:nonzero;stroke:none"
         d="m 605.551,179.531 v 8.59 c 9.679,0.828 18.898,3.758 27.648,8.758 h 7.66 V 68.1211 c 0,-6.3594 0.942,-10.6211 2.813,-12.8125 1.879,-2.1094 5.976,-3.1172 12.348,-3.1172 h 3.281 v -8.75 h -53.75 v 8.75 h 5.308 c 4.571,0 7.731,1.0078 9.532,3.1172 1.879,2.1914 2.808,6.7227 2.808,13.6016 V 179.531 Z" /><path
         id="path28"
         style="fill:#27617e;fill-opacity:1;fill-rule:nonzero;stroke:none"
         d="m 754.219,136.879 c 6.25,6.871 12.383,10.312 18.441,10.312 2.379,0 4.449,-0.781 6.25,-2.351 1.75,-1.481 2.649,-3.199 2.649,-5.149 0,-2.191 -0.778,-4.031 -2.34,-5.472 -1.559,-1.367 -3.559,-2.028 -5.938,-2.028 -1.371,0 -2.89,0.149 -4.531,0.469 l -4.691,0.621 c -1.481,0 -3.118,-0.781 -5,-2.34 4.261,-5 6.41,-10.941 6.41,-17.82 0,-9.293 -4.141,-17.2616 -12.348,-23.9022 -8.121,-6.6797 -18.281,-10 -30.461,-10 -6.879,0 -13.75,1.2929 -20.629,3.9023 -4.062,-2.5 -6.679,-4.3711 -7.812,-5.6211 -1.059,-1.1719 -1.559,-2.4609 -1.559,-3.9102 0,-1.9882 1.168,-3.6679 3.59,-5 2.5,-1.3593 7.578,-2.6093 15.309,-3.75 l 30.16,-4.2187 c 13.511,-2.1797 23.511,-5.543 30,-10 6.441,-4.3711 9.691,-10.4609 9.691,-18.2813 0,-10 -5.75,-17.6484 -17.191,-22.96089 C 752.73,4.05859 738.75,1.41016 722.191,1.41016 c -15.55,0 -27.621,2.30078 -36.25,6.87109 -8.671,4.48825 -12.972,10.00005 -12.972,16.55855 0,8.25 7.89,17.5821 23.75,27.9688 -6.489,1.5703 -11.367,3.4805 -14.688,5.7812 -3.359,2.2696 -5,5.3594 -5,9.2188 0,3.832 1.02,6.7227 3.129,8.6016 2.07,1.9492 6.949,5.539 14.68,10.7812 -10.309,6.9492 -15.461,15.6176 -15.461,25.9296 0,9.578 4.141,17.66 12.5,24.219 8.32,6.57 18.781,9.851 31.402,9.851 6.02,0 11.328,-0.781 15.938,-2.351 4.691,-1.559 9.691,-4.219 15,-7.961 z m -7.188,-23.91 c 0,7.383 -2.34,13.359 -7.031,17.972 -4.609,4.68 -10.551,7.028 -17.809,7.028 -6.882,0 -12.66,-2.457 -17.351,-7.348 -4.68,-4.801 -7.031,-10.699 -7.031,-17.652 0,-6.879 2.39,-12.77 7.191,-17.6604 4.879,-4.918 10.699,-7.3398 17.5,-7.3398 7.07,0 12.891,2.3828 17.5,7.1914 4.691,4.7617 7.031,10.6988 7.031,17.8088 z M 705.469,50.7813 C 694.301,41.4102 688.75,33.6719 688.75,27.5 c 0,-4.7695 2.969,-8.6719 8.91,-11.7187 5.93,-3.1211 14.289,-4.6915 25.149,-4.6915 11.882,0 21.961,1.6797 30.312,5 8.438,3.3594 12.66,8.0899 12.66,14.2188 0,4.9219 -3.051,8.4414 -9.062,10.6328 -5.938,2.1797 -11.719,3.75 -17.34,4.6797 z" /><path
         id="path30"
         style="fill:#27617e;fill-opacity:1;fill-rule:nonzero;stroke:none"
         d="m 861.801,102.969 v 12.5 c 0,14.453 -8.281,21.722 -24.852,21.722 -7.301,0 -12.73,-1.531 -16.25,-4.531 -3.429,-2.93 -5.898,-8.09 -7.34,-15.469 -0.629,-3.05 -1.839,-5.39 -3.589,-7.031 -1.68,-1.57 -3.75,-2.351 -6.25,-2.351 -2.739,0 -4.969,0.98 -6.719,2.972 -1.68,1.949 -2.5,4.528 -2.5,7.66 0,7.258 4.097,13.829 12.34,19.68 8.32,5.938 19.41,8.91 33.281,8.91 13.949,0 24.098,-2.89 30.469,-8.59 6.449,-5.742 9.687,-14.769 9.687,-27.031 V 70 c 0,-6.25 0.313,-10.5508 0.942,-12.8086 0.621,-2.1914 1.871,-3.9922 3.75,-5.3125 1.949,-1.3672 4.14,-2.0391 6.558,-2.0391 2.582,0 6.172,0.7813 10.781,2.3516 v -9.2226 c -5.308,-1.3282 -10.429,-2.0274 -15.308,-2.0274 -13.871,0 -21.84,5.8203 -23.91,17.5 -7.5,-6.0625 -14.653,-10.4726 -21.411,-13.2812 -6.789,-2.8204 -14.058,-4.2188 -21.871,-4.2188 -9.379,0 -17.148,2.5 -23.281,7.5 -6.058,5.0781 -9.058,11.25 -9.058,18.4375 0,9.4492 4.761,17.0313 14.371,22.6524 9.687,5.6992 29.73,10.1992 60.16,13.4377 z m 0,-9.219 c -25.242,-3.2383 -40.781,-6.8008 -46.723,-10.6289 -5.859,-3.8594 -8.75,-8.6719 -8.75,-14.3711 0,-4.4883 1.723,-8.2812 5.152,-11.4102 3.52,-3.039 7.86,-4.5312 12.969,-4.5312 10.199,0 22.66,5.2422 37.352,15.7812 z" /><path
         id="path32"
         style="fill:#27617e;fill-opacity:1;fill-rule:nonzero;stroke:none"
         d="m 910.66,129.379 v 8.59 c 9.262,0.621 18.32,3.633 27.192,9.062 h 7.968 v -19.84 c 5.078,6.129 10.86,10.969 17.34,14.528 6.449,3.511 12.352,5.312 17.66,5.312 5,0 8.828,-1.25 11.559,-3.75 2.82,-2.422 4.223,-5.472 4.223,-9.222 0,-2.418 -1.051,-4.528 -3.122,-6.399 -2.109,-1.879 -4.378,-2.82 -6.878,-2.82 -2.114,0 -3.981,0.672 -5.622,2.039 -3.871,3.121 -7.351,4.68 -10.468,4.68 -3.364,0 -7.274,-1.52 -11.723,-4.528 -4.488,-3.051 -8.59,-6.722 -12.34,-11.09 V 67.6602 c 0,-5.8594 0.93,-9.9297 2.813,-12.1914 1.867,-2.1875 5.859,-3.2774 12.027,-3.2774 h 3.59 v -8.75 H 910.66 v 8.75 h 4.539 c 6.129,0 9.922,1.168 11.403,3.5899 1.558,2.3789 2.347,6.3281 2.347,11.8789 v 61.7188 z" /><path
         id="path34"
         style="fill:#27617e;fill-opacity:1;fill-rule:nonzero;stroke:none"
         d="m 997.34,144.379 h 47.97 v -8.758 h -2.97 c -4.37,0 -7.42,-0.461 -9.06,-1.402 -1.68,-0.86 -2.5,-2.27 -2.5,-4.219 0,-1.371 0.78,-4.219 2.34,-8.59 l 23.76,-62.0311 22.96,62.0311 c 1.33,3.43 2.04,6.09 2.04,7.969 0,4.141 -3.21,6.242 -9.54,6.242 h -4.84 v 8.758 h 41.25 v -8.758 c -5,0 -8.59,-1.242 -10.78,-3.742 -2.11,-2.43 -4.06,-5.899 -5.94,-10.469 l -32.97,-80.4686 h -12.65 l -33.6,82.4996 c -3.12,8.118 -8.28,12.18 -15.47,12.18 z" /><path
         id="path36"
         style="fill:#27617e;fill-opacity:1;fill-rule:nonzero;stroke:none"
         d="m 1213.09,70.4688 6.71,-5.3086 c -6.56,-8.4414 -13.28,-14.6094 -20.15,-18.4414 -6.8,-3.8282 -14.49,-5.7774 -23.13,-5.7774 -10.62,0 -19.96,2.3399 -27.97,7.0274 -8.04,4.6914 -14.06,11.2929 -18.12,19.8398 -4.06,8.6406 -6.09,17.582 -6.09,26.8828 0,14.6876 4.68,27.0706 14.06,37.1876 9.45,10.07 21.87,15.152 37.19,15.152 13.12,0 23.59,-3.91 31.4,-11.722 7.81,-7.731 11.88,-18.547 12.19,-32.5 h -74.06 c -0.12,-2.809 -0.16,-5.4692 -0.16,-7.9692 0,-12.8085 3.05,-23.1992 9.22,-31.0898 6.13,-7.9297 14.37,-11.8711 24.69,-11.8711 6.75,0 12.81,1.6406 18.12,5 5.31,3.3203 10.67,7.8516 16.1,13.5899 z M 1199.8,112.66 c -2.73,16.32 -10.93,24.531 -24.68,24.531 -7.42,0 -13.36,-2.113 -17.82,-6.25 -4.49,-4.062 -8.04,-10.16 -10.62,-18.281 z" /><path
         id="path38"
         style="fill:#27617e;fill-opacity:1;fill-rule:nonzero;stroke:none"
         d="m 1298.4,189.379 h 57.65 c 12.82,0 22.58,-0.59 29.38,-1.719 6.87,-1.18 13.01,-3.601 18.44,-7.351 5.39,-3.75 9.45,-8.36 12.18,-13.75 2.82,-5.309 4.22,-11.207 4.22,-17.649 0,-8.988 -2.15,-16.801 -6.4,-23.441 -4.18,-6.68 -9.85,-11.641 -17.03,-14.848 -7.19,-3.242 -18.4,-4.84 -33.6,-4.84 h -26.72 V 68.2813 c 0,-4.6094 0.2,-7.9297 0.63,-10 0.39,-2.1094 1.56,-3.6719 3.44,-4.6915 1.87,-0.9296 4.92,-1.3984 9.21,-1.3984 h 5.16 v -8.75 h -56.56 v 8.75 h 3.44 c 6.56,0 10.62,0.9297 12.18,2.8086 1.64,1.8789 2.5,5.8203 2.5,11.8789 v 99.8401 c 0,6.011 -0.86,9.84 -2.5,11.402 -1.56,1.649 -5.62,2.5 -12.18,2.5 h -3.44 z m 38.12,-11.258 v -61.402 h 22.5 c 10.08,0 17.43,0.82 22.03,2.5 4.57,1.64 8.6,5.082 12.04,10.312 3.43,5.309 5.15,11.719 5.15,19.219 0,4.371 -0.78,8.48 -2.34,12.34 -1.56,3.832 -3.91,7.191 -7.03,10 -3.13,2.82 -6.96,4.691 -11.41,5.629 -4.49,0.941 -11.99,1.402 -22.5,1.402 z" /><path
         id="path40"
         style="fill:#27617e;fill-opacity:1;fill-rule:nonzero;stroke:none"
         d="m 1428.95,129.379 v 8.59 c 9.25,0.621 18.32,3.633 27.18,9.062 h 7.97 v -19.84 c 5.08,6.129 10.86,10.969 17.35,14.528 6.44,3.511 12.34,5.312 17.65,5.312 5,0 8.83,-1.25 11.56,-3.75 2.82,-2.422 4.22,-5.472 4.22,-9.222 0,-2.418 -1.05,-4.528 -3.12,-6.399 -2.11,-1.879 -4.38,-2.82 -6.88,-2.82 -2.11,0 -3.98,0.672 -5.62,2.039 -3.87,3.121 -7.35,4.68 -10.47,4.68 -3.36,0 -7.27,-1.52 -11.72,-4.528 -4.49,-3.051 -8.59,-6.722 -12.34,-11.09 V 67.6602 c 0,-5.8594 0.93,-9.9297 2.81,-12.1914 1.87,-2.1875 5.86,-3.2774 12.03,-3.2774 h 3.59 v -8.75 h -54.21 v 8.75 h 4.53 c 6.13,0 9.92,1.168 11.4,3.5899 1.57,2.3789 2.35,6.3281 2.35,11.8789 v 61.7188 z" /><path
         id="path42"
         style="fill:#27617e;fill-opacity:1;fill-rule:nonzero;stroke:none"
         d="m 1524.22,93.75 c 0,15.699 4.76,28.52 14.37,38.441 9.57,9.879 22.11,14.84 37.66,14.84 15.31,0 27.58,-4.922 36.87,-14.691 9.26,-9.68 13.91,-22.461 13.91,-38.2814 0,-16.0469 -4.76,-28.8984 -14.22,-38.5898 -9.37,-9.6875 -21.99,-14.5274 -37.81,-14.5274 -15.62,0 -28.05,4.8789 -37.19,14.6797 -9.06,9.8906 -13.59,22.5781 -13.59,38.1289 z m 82.66,0.4688 c 0,13.1212 -2.78,23.4802 -8.29,31.0902 -5.43,7.703 -13.12,11.57 -23.12,11.57 -9.18,0 -16.56,-4.027 -22.19,-12.039 -5.62,-7.93 -8.44,-18.512 -8.44,-31.7189 0,-13.5508 2.66,-24.0625 7.97,-31.5625 5.31,-7.5 12.85,-11.25 22.66,-11.25 9.37,0 16.91,3.9531 22.65,11.8828 5.83,7.8867 8.76,18.5899 8.76,32.0274 z" /><path
         id="path44"
         style="fill:#27617e;fill-opacity:1;fill-rule:nonzero;stroke:none"
         d="m 1642.5,129.379 v 8.59 c 9.69,0 18.75,3.011 27.19,9.062 h 8.28 v -17.652 c 6.76,5.621 13.16,9.922 19.22,12.961 6.01,3.129 12.65,4.691 19.84,4.691 11.95,0 22.19,-5 30.63,-15 8.43,-10 12.65,-22.461 12.65,-37.3396 0,-16.0625 -4.49,-29.0312 -13.43,-38.9101 -8.87,-9.9219 -20.47,-14.8399 -34.85,-14.8399 -7.11,0 -13.24,1.168 -18.44,3.4375 -5.11,2.3828 -10.31,5.7813 -15.62,10.1524 V 23.9102 c 0,-4.7696 0.31,-8.1289 0.94,-10 0.7,-1.8789 2.22,-3.0508 4.53,-3.6016 2.38,-0.61719 6.72,-0.92969 12.97,-0.92969 V 0.621094 H 1642.5 V 9.37891 h 4.69 c 5.93,0 9.61,0.92969 11.09,2.81249 1.45,1.8672 2.19,6.0899 2.19,12.6484 V 129.379 Z m 35.47,-10.629 V 82.6602 c 0,-9.6094 2.54,-17.1094 7.65,-22.5 5.08,-5.3204 12.08,-7.9688 20.94,-7.9688 10.32,0 18.48,3.4297 24.53,10.3086 6.02,6.8789 9.07,16.6016 9.07,29.2188 0,12.5002 -2.74,22.6602 -8.13,30.4722 -5.31,7.887 -11.87,11.868 -19.69,11.868 -10,0 -21.48,-5.11 -34.37,-15.309 z" /><path
         id="path46"
         style="fill:#27617e;fill-opacity:1;fill-rule:nonzero;stroke:none"
         d="m 1872.85,70.4688 6.72,-5.3086 c -6.56,-8.4414 -13.28,-14.6094 -20.16,-18.4414 -6.79,-3.8282 -14.49,-5.7774 -23.12,-5.7774 -10.63,0 -19.96,2.3399 -27.97,7.0274 -8.05,4.6914 -14.06,11.2929 -18.12,19.8398 -4.07,8.6406 -6.1,17.582 -6.1,26.8828 0,14.6876 4.69,27.0706 14.06,37.1876 9.46,10.07 21.88,15.152 37.19,15.152 13.13,0 23.6,-3.91 31.41,-11.722 7.81,-7.731 11.87,-18.547 12.19,-32.5 h -74.07 c -0.11,-2.809 -0.15,-5.4692 -0.15,-7.9692 0,-12.8085 3.04,-23.1992 9.22,-31.0898 6.13,-7.9297 14.37,-11.8711 24.68,-11.8711 6.76,0 12.82,1.6406 18.13,5 5.31,3.3203 10.66,7.8516 16.09,13.5899 z m -13.28,42.1912 c -2.73,16.32 -10.94,24.531 -24.69,24.531 -7.42,0 -13.36,-2.113 -17.81,-6.25 -4.49,-4.062 -8.05,-10.16 -10.62,-18.281 z" /><path
         id="path48"
         style="fill:#27617e;fill-opacity:1;fill-rule:nonzero;stroke:none"
         d="m 1887.34,129.379 v 8.59 c 9.26,0.621 18.32,3.633 27.19,9.062 h 7.97 v -19.84 c 5.08,6.129 10.86,10.969 17.34,14.528 6.45,3.511 12.35,5.312 17.66,5.312 5,0 8.83,-1.25 11.56,-3.75 2.82,-2.422 4.22,-5.472 4.22,-9.222 0,-2.418 -1.05,-4.528 -3.12,-6.399 -2.11,-1.879 -4.38,-2.82 -6.88,-2.82 -2.11,0 -3.98,0.672 -5.62,2.039 -3.87,3.121 -7.35,4.68 -10.47,4.68 -3.36,0 -7.27,-1.52 -11.72,-4.528 -4.49,-3.051 -8.59,-6.722 -12.35,-11.09 V 67.6602 c 0,-5.8594 0.94,-9.9297 2.82,-12.1914 1.87,-2.1875 5.86,-3.2774 12.03,-3.2774 h 3.59 v -8.75 h -54.22 v 8.75 h 4.54 c 6.13,0 9.92,1.168 11.4,3.5899 1.56,2.3789 2.34,6.3281 2.34,11.8789 v 61.7188 z" /><path
         id="path50"
         style="fill:#27617e;fill-opacity:1;fill-rule:nonzero;stroke:none"
         d="m 2009.34,180 h 7.34 v -35.621 h 31.09 V 133.91 h -31.09 V 70.9414 c 0,-7.7422 1.29,-12.8906 3.91,-15.4726 2.69,-2.6172 6.01,-3.9102 10,-3.9102 6.75,0 14.06,2.8906 21.87,8.75 v -10 c -9.18,-6.25 -18.44,-9.3672 -27.81,-9.3672 -5.24,0 -10.08,1.25 -14.53,3.75 -4.38,2.5 -7.31,5.3477 -8.75,8.5899 -1.37,3.3203 -2.03,8.75 -2.03,16.25 V 133.91 h -18.44 v 8.75 c 8.75,2.18 15.19,5.93 19.37,11.25 4.26,5.391 7.27,14.102 9.07,26.09 z" /><path
         id="path52"
         style="fill:#27617e;fill-opacity:1;fill-rule:nonzero;stroke:none"
         d="m 2055.66,144.379 h 50.79 v -8.758 h -4.22 c -4.07,0 -6.88,-0.422 -8.44,-1.242 -1.49,-0.75 -2.19,-2.039 -2.19,-3.91 0,-1.989 1.02,-5.239 3.13,-9.688 l 23.28,-50.6208 22.5,48.1208 c 2.58,5.699 3.9,9.77 3.9,12.188 0,1.871 -0.7,3.16 -2.03,3.91 -1.36,0.82 -3.98,1.242 -7.81,1.242 h -5 v 8.758 h 41.88 v -8.758 h -2.66 c -4.06,0 -6.95,-0.781 -8.59,-2.34 -1.68,-1.562 -4.22,-6.09 -7.66,-13.59 l -38.59,-83.1324 c -5.43,-12.3789 -10.86,-21.2891 -16.25,-26.71876 -5.32,-5.5 -12.04,-8.28125 -20.16,-8.28125 -6.25,0 -11.37,1.49219 -15.31,4.38282 -3.99,2.80859 -5.94,6.08989 -5.94,9.83989 0,2.4179 0.78,4.5273 2.34,6.4101 1.57,1.8672 3.44,2.8086 5.63,2.8086 2.69,0 5.82,-1.6406 9.37,-5 3.83,-3.5195 7.35,-5.3086 10.47,-5.3086 6.88,0 13.67,8.2383 20.47,24.6875 l 4.22,10.4609 -33.44,70.9412 c -3.05,6.559 -5.7,10.668 -7.97,12.34 -2.18,1.649 -6.09,2.5 -11.72,2.5 z" /><path
         id="path54"
         style="fill:#27617e;fill-opacity:1;fill-rule:nonzero;stroke:none"
         d="m 2366.25,189.379 h 7.5 l 13.44,-48.598 -9.69,-2.812 c -5.74,14.453 -12.62,25.191 -20.62,32.191 -8.05,7.07 -18.09,10.621 -30.16,10.621 -15,0 -27.5,-5.941 -37.5,-17.812 -10,-11.797 -15,-26.797 -15,-45 0,-18.8674 5.31,-34.2971 15.94,-46.2502 10.62,-11.9883 23.63,-17.9688 39.06,-17.9688 9.26,0 18.75,2.5781 28.44,7.8086 9.68,5.3203 18.12,12.7422 25.31,22.3516 l 8.44,-5.4688 c -8.36,-12.3125 -18.25,-21.6406 -29.69,-27.9726 -11.49,-6.3672 -23.91,-9.5274 -37.34,-9.5274 -20.63,0 -37.97,7.1797 -52.04,21.5586 -13.98,14.4492 -20.93,32.2695 -20.93,53.441 0,13.508 3.28,26.168 9.84,37.969 6.56,11.75 15.55,21.012 27.03,27.809 11.45,6.871 23.67,10.312 36.72,10.312 13.63,0 26.29,-4.062 37.97,-12.191 z" /><path
         id="path56"
         style="fill:#27617e;fill-opacity:1;fill-rule:nonzero;stroke:none"
         d="m 2407.11,93.75 c 0,15.699 4.77,28.52 14.37,38.441 9.57,9.879 22.11,14.84 37.66,14.84 15.31,0 27.58,-4.922 36.88,-14.691 9.25,-9.68 13.9,-22.461 13.9,-38.2814 0,-16.0469 -4.76,-28.8984 -14.22,-38.5898 -9.37,-9.6875 -21.99,-14.5274 -37.81,-14.5274 -15.62,0 -28.05,4.8789 -37.19,14.6797 -9.06,9.8906 -13.59,22.5781 -13.59,38.1289 z m 82.66,0.4688 c 0,13.1212 -2.78,23.4802 -8.29,31.0902 -5.43,7.703 -13.12,11.57 -23.12,11.57 -9.18,0 -16.56,-4.027 -22.19,-12.039 -5.62,-7.93 -8.44,-18.512 -8.44,-31.7189 0,-13.5508 2.66,-24.0625 7.97,-31.5625 5.32,-7.5 12.85,-11.25 22.66,-11.25 9.37,0 16.91,3.9531 22.66,11.8828 5.82,7.8867 8.75,18.5899 8.75,32.0274 z" /><path
         id="path58"
         style="fill:#27617e;fill-opacity:1;fill-rule:nonzero;stroke:none"
         d="m 2526.17,129.379 v 8.742 c 9.45,1.02 18.52,3.988 27.19,8.91 h 7.81 v -17.652 c 9.26,7.262 16.49,12.031 21.72,14.211 5.2,2.269 10.66,3.441 16.41,3.441 5.7,0 11.25,-1.371 16.56,-4.062 5.39,-2.739 9.45,-7.27 12.19,-13.59 13.12,11.75 26.17,17.652 39.22,17.652 9.37,0 16.64,-2.652 21.87,-7.972 5.2,-5.309 7.81,-12.77 7.81,-22.34 V 68.1211 c 0,-6.4805 0.82,-10.7422 2.5,-12.8125 1.64,-2.1094 5.71,-3.1172 12.19,-3.1172 h 3.44 v -8.75 h -52.81 v 8.75 c 7.18,0 11.79,0.8594 13.9,2.6484 2.19,1.879 3.28,6.2891 3.28,13.2813 v 46.2579 c 0,7.18 -1.36,12.262 -4.06,15.312 -2.73,3.118 -7.15,4.688 -13.28,4.688 -5.23,0 -10.9,-1.57 -17.03,-4.688 -6.17,-3.05 -11.37,-6.961 -15.63,-11.722 V 68.1211 c 0,-7.1797 0.94,-11.6719 2.82,-13.4297 1.95,-1.6797 6.75,-2.5 14.37,-2.5 v -8.75 h -51.72 v 8.75 h 3.13 c 5.7,0 9.41,1.0899 11.09,3.2774 1.64,2.2617 2.5,6.4804 2.5,12.6523 V 112.66 c 0,7.57 -1.37,13.121 -4.06,16.559 -2.74,3.441 -7.15,5.16 -13.28,5.16 -9.69,0 -20.55,-5.469 -32.5,-16.41 V 64.2188 c 0,-4.379 0.93,-7.5 2.81,-9.379 1.95,-1.789 5.47,-2.6484 10.47,-2.6484 h 3.9 v -8.75 h -52.81 v 8.75 h 2.81 c 6.64,0 10.82,0.9297 12.5,2.8086 1.76,1.9492 2.66,6.3281 2.66,13.1211 v 61.2579 z" /><path
         id="path60"
         style="fill:#27617e;fill-opacity:1;fill-rule:nonzero;stroke:none"
         d="m 2726.76,129.379 v 8.59 c 9.69,0 18.75,3.011 27.19,9.062 h 8.28 v -17.652 c 6.75,5.621 13.16,9.922 19.22,12.961 6.01,3.129 12.65,4.691 19.84,4.691 11.95,0 22.19,-5 30.62,-15 8.44,-10 12.66,-22.461 12.66,-37.3396 0,-16.0625 -4.49,-29.0312 -13.44,-38.9101 -8.86,-9.9219 -20.47,-14.8399 -34.84,-14.8399 -7.11,0 -13.24,1.168 -18.44,3.4375 -5.12,2.3828 -10.31,5.7813 -15.62,10.1524 V 23.9102 c 0,-4.7696 0.31,-8.1289 0.93,-10 0.71,-1.8789 2.23,-3.0508 4.54,-3.6016 2.38,-0.61719 6.71,-0.92969 12.96,-0.92969 V 0.621094 h -53.9 V 9.37891 h 4.69 c 5.93,0 9.6,0.92969 11.09,2.81249 1.44,1.8672 2.19,6.0899 2.19,12.6484 V 129.379 Z m 35.47,-10.629 V 82.6602 c 0,-9.6094 2.54,-17.1094 7.65,-22.5 5.08,-5.3204 12.07,-7.9688 20.94,-7.9688 10.31,0 18.48,3.4297 24.53,10.3086 6.02,6.8789 9.06,16.6016 9.06,29.2188 0,12.5002 -2.73,22.6602 -8.12,30.4722 -5.31,7.887 -11.88,11.868 -19.69,11.868 -10,0 -21.48,-5.11 -34.37,-15.309 z" /><path
         id="path62"
         style="fill:#27617e;fill-opacity:1;fill-rule:nonzero;stroke:none"
         d="m 2935.7,102.969 v 12.5 c 0,14.453 -8.28,21.722 -24.84,21.722 -7.31,0 -12.74,-1.531 -16.25,-4.531 -3.44,-2.93 -5.9,-8.09 -7.34,-15.469 -0.63,-3.05 -1.84,-5.39 -3.6,-7.031 -1.68,-1.57 -3.75,-2.351 -6.25,-2.351 -2.73,0 -4.96,0.98 -6.72,2.972 -1.68,1.949 -2.5,4.528 -2.5,7.66 0,7.258 4.1,13.829 12.35,19.68 8.32,5.938 19.41,8.91 33.28,8.91 13.94,0 24.1,-2.89 30.47,-8.59 6.44,-5.742 9.68,-14.769 9.68,-27.031 V 70 c 0,-6.25 0.32,-10.5508 0.94,-12.8086 0.63,-2.1914 1.88,-3.9922 3.75,-5.3125 1.95,-1.3672 4.14,-2.0391 6.56,-2.0391 2.58,0 6.18,0.7813 10.79,2.3516 v -9.2226 c -5.32,-1.3282 -10.43,-2.0274 -15.32,-2.0274 -13.86,0 -21.83,5.8203 -23.9,17.5 -7.5,-6.0625 -14.65,-10.4726 -21.41,-13.2812 -6.8,-2.8204 -14.06,-4.2188 -21.87,-4.2188 -9.38,0 -17.15,2.5 -23.29,7.5 -6.05,5.0781 -9.06,11.25 -9.06,18.4375 0,9.4492 4.77,17.0313 14.38,22.6524 9.68,5.6992 29.72,10.1992 60.15,13.4377 z m 0,-9.219 c -25.23,-3.2383 -40.78,-6.8008 -46.72,-10.6289 -5.86,-3.8594 -8.75,-8.6719 -8.75,-14.3711 0,-4.4883 1.72,-8.2812 5.16,-11.4102 3.52,-3.039 7.85,-4.5312 12.97,-4.5312 10.19,0 22.66,5.2422 37.34,15.7812 z" /><path
         id="path64"
         style="fill:#27617e;fill-opacity:1;fill-rule:nonzero;stroke:none"
         d="m 2985.04,129.379 v 8.742 c 6.25,0.629 10.98,1.488 14.22,2.66 3.2,1.129 7.54,3.199 12.97,6.25 h 7.5 v -20 c 7.81,6.758 15.04,11.758 21.72,15 6.75,3.321 13.94,5 21.56,5 5.19,0 9.84,-0.859 13.9,-2.5 4.07,-1.562 7.43,-3.711 10.16,-6.41 2.81,-2.73 4.88,-5.781 6.25,-9.211 1.33,-3.441 2.03,-8.68 2.03,-15.629 V 67.1914 c 0,-4.8125 0.31,-8.2109 0.94,-10.1601 0.7,-1.8711 2.23,-3.2032 4.53,-3.9102 2.38,-0.6211 6.48,-0.9297 12.34,-0.9297 v -8.75 h -53.75 v 8.75 h 2.82 c 6.32,0 10.47,0.9297 12.34,2.8086 1.95,1.8789 2.97,6.2891 2.97,13.2813 v 38.4377 c 0,8.203 -0.7,13.832 -2.03,16.871 -1.37,3.129 -3.6,5.551 -6.72,7.351 -3.05,1.868 -6.84,2.809 -11.41,2.809 -12.11,0 -24.33,-5.738 -36.72,-17.191 V 68.2813 c 0,-5.1211 0.39,-8.8321 1.25,-11.0899 0.94,-2.1914 2.35,-3.6016 4.22,-4.2226 1.96,-0.5469 5.2,-0.7774 9.69,-0.7774 h 2.97 v -8.75 h -53.75 v 8.75 h 2.5 c 4.76,0 8.12,0.3086 10,0.9297 1.95,0.707 3.32,2.2305 4.06,4.5391 0.82,2.3789 1.25,6.4414 1.25,12.1796 v 59.5392 z" /><path
         id="path66"
         style="fill:#27617e;fill-opacity:1;fill-rule:nonzero;stroke:none"
         d="m 3118.55,144.379 h 50.79 v -8.758 h -4.22 c -4.07,0 -6.88,-0.422 -8.44,-1.242 -1.48,-0.75 -2.19,-2.039 -2.19,-3.91 0,-1.989 1.02,-5.239 3.13,-9.688 l 23.28,-50.6208 22.5,48.1208 c 2.58,5.699 3.9,9.77 3.9,12.188 0,1.871 -0.7,3.16 -2.03,3.91 -1.36,0.82 -3.98,1.242 -7.81,1.242 h -5 v 8.758 h 41.88 v -8.758 h -2.66 c -4.06,0 -6.95,-0.781 -8.59,-2.34 -1.68,-1.562 -4.22,-6.09 -7.66,-13.59 l -38.59,-83.1324 c -5.43,-12.3789 -10.86,-21.2891 -16.25,-26.71876 -5.32,-5.5 -12.04,-8.28125 -20.16,-8.28125 -6.25,0 -11.37,1.49219 -15.31,4.38282 -3.99,2.80859 -5.94,6.08989 -5.94,9.83989 0,2.4179 0.78,4.5273 2.34,6.4101 1.57,1.8672 3.44,2.8086 5.63,2.8086 2.69,0 5.82,-1.6406 9.37,-5 3.83,-3.5195 7.35,-5.3086 10.47,-5.3086 6.88,0 13.67,8.2383 20.47,24.6875 l 4.22,10.4609 -33.44,70.9412 c -3.04,6.559 -5.7,10.668 -7.97,12.34 -2.18,1.649 -6.09,2.5 -11.72,2.5 z" /></g></g></svg>